<svg width="120" height="120" viewBox="0 0 120 120" fill="none" xmlns="http://www.w3.org/2000/svg">
  <!-- Background Circle -->
  <circle cx="60" cy="60" r="60" fill="#1D4ED8"/>
  
  <!-- Chart Lines -->
  <path d="M20 75 L35 65 L50 45 L65 55 L80 35 L95 50" stroke="#60A5FA" stroke-width="3" fill="none" stroke-linecap="round" stroke-linejoin="round"/>
  
  <!-- Chart Points -->
  <circle cx="20" cy="75" r="3" fill="#EFF6FF"/>
  <circle cx="35" cy="65" r="3" fill="#EFF6FF"/>
  <circle cx="50" cy="45" r="3" fill="#EFF6FF"/>
  <circle cx="65" cy="55" r="3" fill="#EFF6FF"/>
  <circle cx="80" cy="35" r="3" fill="#EFF6FF"/>
  <circle cx="95" cy="50" r="3" fill="#EFF6FF"/>
  
  <!-- Arrow Up Trend -->
  <path d="M85 40 L95 30 L85 30" stroke="#10B981" stroke-width="2.5" fill="none" stroke-linecap="round" stroke-linejoin="round"/>
  <path d="M95 30 L90 35" stroke="#10B981" stroke-width="2.5" stroke-linecap="round"/>
  
  <!-- Star/Watch Icon -->
  <path d="M60 85 L63 91 L70 91 L65 95 L67 102 L60 98 L53 102 L55 95 L50 91 L57 91 Z" fill="#FBBF24" stroke="#F59E0B" stroke-width="1"/>
  
  <!-- Text Background -->
  <rect x="15" y="102" width="90" height="12" rx="6" fill="#1E40AF" opacity="0.9"/>
  
  <!-- Text -->
  <text x="60" y="110" font-family="Arial, sans-serif" font-size="8" font-weight="bold" text-anchor="middle" fill="#FFFFFF">STOCK WATCHLIST</text>
</svg>